<svg xmlns="http://www.w3.org/2000/svg" width="319" height="42" fill="none"><path fill="#0B2E4F" stroke="#0B2E4F" stroke-linejoin="round" d="M17.947 38.822a.5.5 0 0 0-.5-.5H7.68c-2.158 0-4.002-1.83-4.002-4.21V7.888c0-2.38 1.845-4.21 4.002-4.21h9.767a.5.5 0 0 0 .5-.5V1a.5.5 0 0 0-.5-.5H7.68C3.66.5.5 3.863.5 7.888v26.224c0 4.024 3.158 7.388 7.18 7.388h9.767a.5.5 0 0 0 .5-.5zM24.053 3.178a.5.5 0 0 0 .5.5h9.792c2.138 0 3.977 1.823 3.977 4.21v26.224c0 2.391-1.838 4.21-3.977 4.21h-9.792a.5.5 0 0 0-.5.5V41a.5.5 0 0 0 .5.5h9.792c4.013 0 7.155-3.364 7.155-7.388V7.888C41.5 3.871 38.36.5 34.345.5h-9.792a.5.5 0 0 0-.5.5z"/><path fill="#006F98" stroke="#006F98" d="M21 19.235a5.294 5.294 0 1 1 0-10.588 5.294 5.294 0 0 1 0 10.588Zm0-8.363a3.072 3.072 0 1 0-.003 6.143A3.072 3.072 0 0 0 21 10.872ZM30.494 32.765H12.092a1.1 1.1 0 0 1-.772-.31 1.04 1.04 0 0 1-.32-.747v-3.196c0-3.882 3.08-6.924 7.01-6.924h6.57c3.93 0 7.008 3.042 7.008 6.924v3.196a1.02 1.02 0 0 1-.32.748 1.1 1.1 0 0 1-.774.309Zm-17.31-2.114h16.222v-2.139c0-2.697-2.118-4.81-4.824-4.81h-6.57c-2.706 0-4.825 2.113-4.825 4.81z"/><path fill="#0B2E4F" d="M61.793 4.625v31.19H57V4.625zM73.001 35.816h-4.818V4.625h4.818l17.288 25.346h-1.37V4.625h4.825v31.19H88.92L71.632 10.467H73zM104.903 4.625v31.19h-4.769V4.625zm12.104 18.13h-16.612v-4.298h16.612zm2.298-13.793H100.48V4.625h18.825zM151.256 20.965q0 4.837-1.929 8.53a14.53 14.53 0 0 1-5.358 5.788q-3.423 2.085-7.938 2.09c-2.77.051-5.5-.672-7.884-2.09a14.4 14.4 0 0 1-5.334-5.755q-1.911-3.655-1.911-8.496 0-4.84 1.932-8.53a14.5 14.5 0 0 1 5.358-5.787q3.427-2.093 7.884-2.09t7.918 2.09a14.6 14.6 0 0 1 5.337 5.788q1.925 3.67 1.925 8.462m-4.988 0q0-3.573-1.259-6.187a9.7 9.7 0 0 0-3.535-4.076 9.86 9.86 0 0 0-8.076-1.22 9.9 9.9 0 0 0-3.688 1.971 9.9 9.9 0 0 0-2.549 3.325q-1.283 2.614-1.279 6.187.003 3.573 1.279 6.212a10.2 10.2 0 0 0 2.601 3.24 10.152 10.152 0 0 0 11.712.87 9.66 9.66 0 0 0 3.535-4.12 14.3 14.3 0 0 0 1.259-6.202M170.08 37.374q-4.723 0-8.243-2.03a13.9 13.9 0 0 1-5.446-5.72q-1.94-3.69-1.94-8.622t1.984-8.583a14.23 14.23 0 0 1 5.585-5.741q3.604-2.05 8.287-2.051a16.6 16.6 0 0 1 6.822 1.352c1.971.854 3.7 2.157 5.038 3.8a12.4 12.4 0 0 1 2.569 5.762h-5.29a8.3 8.3 0 0 0-3.356-4.627q-2.456-1.657-5.922-1.66a10.5 10.5 0 0 0-5.563 1.44 9.74 9.74 0 0 0-3.655 4.063q-1.304 2.619-1.307 6.245a13.8 13.8 0 0 0 1.307 6.177 9.8 9.8 0 0 0 3.677 4.118 10.4 10.4 0 0 0 5.541 1.462c2.135.05 4.234-.538 6.013-1.682a8.3 8.3 0 0 0 3.445-4.475h5.179a12.6 12.6 0 0 1-2.723 5.653 13.9 13.9 0 0 1-5.158 3.779 17 17 0 0 1-6.844 1.34M208.762 35.816h-19.164V4.625h19.17v4.337h-16.376l1.935-1.718v10.793h12.981v4.168h-12.981v10.998l-1.935-1.763h16.376zM219.758 35.8h-4.6V4.625h11.496q4.968 0 7.796 2.51t2.823 6.993q0 3.222-1.484 5.433a8.55 8.55 0 0 1-4.243 3.242l5.978 13.013h-5.058l-5.476-12.082h-7.232zm0-26.967v10.734h6.896q2.762 0 4.263-1.437 1.502-1.439 1.505-3.975 0-2.575-1.525-3.95t-4.243-1.372zM240.719 8.962V4.625h23.964v4.337zm14.409-2.148v29.002h-4.86V6.814zM285.451 4.625v31.19h-4.793V4.625zM302.954 35.816h-11.113V4.625h10.89q4.884 0 8.537 1.952a14.2 14.2 0 0 1 5.693 5.478Q319 15.583 319 20.262q0 4.595-2.018 8.109a14.24 14.24 0 0 1-5.639 5.477q-3.593 1.968-8.389 1.968m-6.197-29.002v26.84l-2.331-2.235h8.145c2.083.05 4.144-.415 5.984-1.352a9.38 9.38 0 0 0 3.897-3.867q1.366-2.514 1.369-5.95 0-3.483-1.391-6.006a9.53 9.53 0 0 0-3.966-3.904q-2.575-1.375-6.162-1.375h-7.863z"/></svg>