<svg xmlns="http://www.w3.org/2000/svg" id="Livello_1" version="1.1" viewBox="0 0 834.75 250"><defs><style>.st0{fill:#010101}.st2{fill:#ed6c27}</style></defs><path d="M41.74.55v193.09H13.28V.55zM214.46 133.93H97.27c3.63 22.88 21.49 38.78 45.2 38.78 19.53 0 36.27-12.28 41.58-28.74h29.02c-7.81 30.41-37.11 52.18-70.87 52.18-42.41 0-73.39-29.86-73.39-71.15s30.97-71.15 73.39-71.15 72.83 29.86 73.11 71.43c0 2.79-.28 5.86-.84 8.65ZM98.1 111.89h89.57c-4.74-20.37-22.6-34.6-45.2-34.6s-39.34 14.23-44.37 34.6M382.7 125.84c0 40.46-28.74 70.32-69.2 70.32-20.09 0-37.11-8.37-47.99-21.49v74.78h-28.46V125c0-41.3 30.41-71.15 72.83-71.15s72.83 29.86 72.83 71.99Zm-29.3-.84c0-27.07-18.42-46.32-43.81-46.32S265.5 97.93 265.5 125s18.42 46.32 44.09 46.32S353.4 151.79 353.4 125" class="st0"/><path d="M653.78.55V125c0 41.3-30.41 71.15-72.83 71.15s-72.83-29.86-72.83-71.99 28.74-70.31 69.2-70.31c20.09 0 37.11 8.37 47.99 21.49V.55h28.46ZM625.32 125c0-26.79-18.42-46.32-44.09-46.32S537.42 98.21 537.42 125s18.42 46.32 43.81 46.32 44.09-19.25 44.09-46.32" class="st2"/><path d="M821.47 125v68.64h-28.46v-18.97c-11.16 13.11-29.58 21.49-50.5 21.49-38.51 0-66.69-29.86-66.69-71.15s30.41-71.15 72.83-71.15 72.83 29.86 72.83 71.15Zm-28.46 0c0-26.79-18.42-46.32-44.09-46.32S705.11 98.21 705.11 125s18.42 46.32 43.81 46.32 44.09-19.25 44.09-46.32" class="st0"/><path d="M488.66 93.11c0-10.79-4.15-20.02-12.49-26.94-7.48-7.71-17.45-10.78-29.08-10.78-10.83 0-20.81 3.07-28.3 10.78-8.33 6.92-12.44 16.15-12.44 26.94 0 10 4.11 19.25 12.44 26.2 7.49 7.68 17.47 11.55 28.3 11.55 11.63 0 21.59-3.87 29.08-11.55 8.34-6.95 12.49-16.2 12.49-26.2" style="fill-rule:evenodd;fill:#ed6c27"/><path d="M447.5 145.99c-28.29 0-51.23 21.07-51.23 47.06h102.46c0-25.99-22.94-47.06-51.23-47.06" class="st2"/></svg>